<svg xmlns="http://www.w3.org/2000/svg" xmlns:xlink="http://www.w3.org/1999/xlink" width="1024" zoomAndPan="magnify" viewBox="0 0 768 767.999994" height="1024" preserveAspectRatio="xMidYMid meet" version="1.0"><defs><g/><clipPath id="2f069a83e4"><rect x="0" width="622" y="0" height="730"/></clipPath></defs><g transform="matrix(1, 0, 0, 1, 101, 38)"><g clip-path="url(#2f069a83e4)"><g fill="#231f20" fill-opacity="1"><g transform="translate(96.672079, 570.145343)"><g><path d="M 74.3125 -202.578125 C 59.050781 -200.753906 45.773438 -202.847656 34.484375 -208.859375 C 23.191406 -214.867188 14.226562 -223.515625 7.59375 -234.796875 C 0.957031 -246.085938 -3.160156 -258.429688 -4.765625 -271.828125 C -7.117188 -291.554688 -4.707031 -311.664062 2.46875 -332.15625 C 9.644531 -352.644531 21.867188 -371.945312 39.140625 -390.0625 C 56.421875 -408.1875 79.195312 -423.75 107.46875 -436.75 C 135.738281 -449.757812 169.789062 -458.644531 209.625 -463.40625 C 229.71875 -465.8125 247.066406 -467.507812 261.671875 -468.5 C 276.273438 -469.5 289.765625 -470.363281 302.140625 -471.09375 C 314.515625 -471.820312 327.03125 -472.941406 339.6875 -474.453125 C 359.789062 -476.859375 375.207031 -479.738281 385.9375 -483.09375 C 396.675781 -486.445312 405.582031 -488.546875 412.65625 -489.390625 C 421.21875 -490.410156 427.21875 -489.144531 430.65625 -485.59375 C 434.101562 -482.050781 436.269531 -476.554688 437.15625 -469.109375 C 438.851562 -454.960938 437.015625 -441.148438 431.640625 -427.671875 C 426.265625 -414.191406 417.253906 -402.734375 404.609375 -393.296875 C 391.960938 -383.859375 375.585938 -377.9375 355.484375 -375.53125 C 342.085938 -373.925781 330.28125 -374.019531 320.0625 -375.8125 C 309.84375 -377.601562 299.765625 -379.789062 289.828125 -382.375 C 279.890625 -384.96875 268.785156 -387.039062 256.515625 -388.59375 C 244.242188 -390.15625 229.363281 -389.890625 211.875 -387.796875 C 189.914062 -385.171875 171.398438 -379.75 156.328125 -371.53125 C 141.265625 -363.3125 130.15625 -353.582031 123 -342.34375 C 115.851562 -331.101562 112.992188 -319.523438 114.421875 -307.609375 C 115.304688 -300.171875 118.097656 -294.179688 122.796875 -289.640625 C 127.492188 -285.109375 132.820312 -283.203125 138.78125 -283.921875 C 142.09375 -278.273438 143.132812 -271.125 141.90625 -262.46875 C 140.675781 -253.820312 137.257812 -245.296875 131.65625 -236.890625 C 126.050781 -228.492188 118.441406 -221.078125 108.828125 -214.640625 C 99.210938 -208.203125 87.707031 -204.179688 74.3125 -202.578125 Z M 83.203125 13.84375 C 57.523438 16.90625 36.132812 14.832031 19.03125 7.625 C 1.9375 0.425781 -11.101562 -9.992188 -20.09375 -23.640625 C -29.082031 -37.285156 -34.492188 -51.742188 -36.328125 -67.015625 C -38.148438 -82.265625 -36.828125 -97.234375 -32.359375 -111.921875 C -27.890625 -126.617188 -20.59375 -139.007812 -10.46875 -149.09375 C -0.34375 -159.1875 12.160156 -165.125 27.046875 -166.90625 C 32.628906 -167.570312 35.6875 -165.671875 36.21875 -161.203125 C 37.6875 -148.921875 43.710938 -139.539062 54.296875 -133.0625 C 64.890625 -126.59375 78.191406 -124.316406 94.203125 -126.234375 C 105.742188 -127.609375 117.914062 -132.363281 130.71875 -140.5 C 143.53125 -148.632812 155.425781 -160.441406 166.40625 -175.921875 C 177.394531 -191.398438 186.003906 -211.03125 192.234375 -234.8125 C 195.554688 -248.039062 198.914062 -261.75 202.3125 -275.9375 C 205.707031 -290.125 209.109375 -303.457031 212.515625 -315.9375 C 215.085938 -326.070312 219.195312 -333.550781 224.84375 -338.375 C 230.5 -343.207031 237.421875 -346.113281 245.609375 -347.09375 C 257.890625 -348.5625 266.304688 -346.828125 270.859375 -341.890625 C 275.421875 -336.960938 276.769531 -329.671875 274.90625 -320.015625 C 269.113281 -289.492188 263.300781 -260.765625 257.46875 -233.828125 C 251.632812 -206.890625 244.972656 -180.515625 237.484375 -154.703125 C 222.316406 -101.535156 201.554688 -61.195312 175.203125 -33.6875 C 148.859375 -6.1875 118.191406 9.65625 83.203125 13.84375 Z M 83.203125 13.84375 "/></g></g></g></g></g></svg>