<svg xmlns="http://www.w3.org/2000/svg" xmlns:xlink="http://www.w3.org/1999/xlink" width="2000" zoomAndPan="magnify" viewBox="0 0 1500 767.999994" height="1024" preserveAspectRatio="xMidYMid meet" version="1.0"><defs><g/><clipPath id="6a73b49cd5"><path d="M 20 3 L 854 3 L 854 768 L 20 768 Z M 20 3 " clip-rule="nonzero"/></clipPath><clipPath id="4505cbe86f"><rect x="0" width="900" y="0" height="768"/></clipPath><clipPath id="3b2175c201"><rect x="0" width="753" y="0" height="685"/></clipPath></defs><g transform="matrix(1, 0, 0, 1, 84, -0.000000000000057351)"><g clip-path="url(#4505cbe86f)"><g clip-path="url(#6a73b49cd5)"><g fill="#f8eddd" fill-opacity="1"><g transform="translate(160.166819, 701.318089)"><g><path d="M 103.890625 -245.660156 C 77.324219 -242.480469 53.773438 -246.359375 33.234375 -257.296875 C 13.230469 -267.949219 -2.621094 -283.222656 -14.316406 -303.113281 C -25.304688 -321.808594 -32.121094 -342.191406 -34.761719 -364.265625 C -38.476562 -395.328125 -34.75 -426.796875 -23.585938 -458.671875 C -12.527344 -490.257812 6.105469 -519.78125 32.304688 -547.246094 C 58.179688 -574.375 91.886719 -597.492188 133.421875 -616.609375 C 174.378906 -635.453125 223.273438 -648.273438 280.113281 -655.074219 C 307.78125 -658.382812 331.734375 -660.726562 351.976562 -662.101562 C 371.820312 -663.445312 390.152344 -664.613281 406.972656 -665.597656 C 423.132812 -666.546875 439.484375 -668.007812 456.027344 -669.988281 C 481.46875 -673.03125 500.609375 -676.5625 513.453125 -680.582031 C 529.652344 -685.652344 543.40625 -688.863281 554.714844 -690.214844 C 575.644531 -692.71875 591.714844 -688.191406 602.933594 -676.625 C 612.058594 -667.214844 617.609375 -654.289062 619.574219 -637.847656 C 622.4375 -613.914062 619.339844 -590.582031 610.28125 -567.859375 C 601.027344 -544.640625 585.695312 -525.042969 564.28125 -509.0625 C 543.101562 -493.253906 516.394531 -483.421875 484.167969 -479.566406 C 463.253906 -477.066406 444.507812 -477.273438 427.917969 -480.191406 C 413.339844 -482.757812 398.960938 -485.886719 384.78125 -489.578125 C 372.527344 -492.765625 358.714844 -495.335938 343.335938 -497.28125 C 329.066406 -499.089844 311.265625 -498.714844 289.929688 -496.164062 C 263.859375 -493.046875 242.25 -486.804688 225.089844 -477.441406 C 209.019531 -468.671875 197.464844 -458.753906 190.425781 -447.691406 C 184.398438 -438.21875 181.945312 -428.796875 183.066406 -419.425781 C 183.464844 -416.074219 184.410156 -413.679688 185.894531 -412.246094 C 186.132812 -412.015625 186.3125 -411.859375 186.433594 -411.785156 C 186.304688 -411.867188 186.117188 -411.953125 185.878906 -412.039062 C 185.257812 -412.261719 184.730469 -412.347656 184.300781 -412.296875 L 202.820312 -414.511719 L 212.273438 -398.433594 C 220.132812 -385.066406 222.757812 -369.246094 220.15625 -350.972656 C 217.878906 -335.015625 211.761719 -319.554688 201.796875 -304.589844 C 192.121094 -290.066406 179.207031 -277.394531 163.058594 -266.585938 C 146.265625 -255.34375 126.542969 -248.367188 103.890625 -245.660156 Z M 97.117188 -302.292969 C 110.710938 -303.921875 122.117188 -307.816406 131.328125 -313.984375 C 141.179688 -320.582031 148.84375 -327.988281 154.320312 -336.210938 C 159.507812 -343.996094 162.628906 -351.597656 163.6875 -359.019531 C 164.414062 -364.125 164.21875 -367.625 163.101562 -369.523438 L 187.6875 -383.976562 L 191.074219 -355.660156 C 174.050781 -353.625 159.113281 -358.8125 146.265625 -371.21875 C 135.050781 -382.054688 128.4375 -395.863281 126.429688 -412.652344 C 123.695312 -435.5 128.988281 -457.386719 142.300781 -478.3125 C 154.605469 -497.644531 173.09375 -514.046875 197.765625 -527.511719 C 221.351562 -540.382812 249.816406 -548.8125 283.152344 -552.800781 C 309.140625 -555.90625 331.589844 -556.265625 350.503906 -553.871094 C 368.308594 -551.617188 384.527344 -548.585938 399.152344 -544.777344 C 411.851562 -541.472656 424.734375 -538.667969 437.800781 -536.371094 C 448.859375 -534.425781 462.054688 -534.367188 477.390625 -536.203125 C 499.535156 -538.851562 517.125 -545.042969 530.164062 -554.773438 C 542.972656 -564.332031 552.015625 -575.734375 557.296875 -588.976562 C 562.769531 -602.714844 564.652344 -616.746094 562.9375 -631.074219 C 562.628906 -633.671875 562.1875 -635.691406 561.621094 -637.128906 C 561.515625 -637.394531 561.441406 -637.566406 561.394531 -637.640625 C 561.527344 -637.425781 561.722656 -637.183594 561.988281 -636.914062 C 563.703125 -635.144531 565.375 -634.089844 567 -633.746094 C 566.003906 -633.957031 564.167969 -633.902344 561.488281 -633.582031 C 553.667969 -632.644531 543.335938 -630.167969 530.492188 -626.148438 C 514.296875 -621.078125 491.734375 -616.8125 462.804688 -613.351562 C 445.113281 -611.234375 427.617188 -609.671875 410.308594 -608.65625 C 393.664062 -607.683594 375.507812 -606.527344 355.839844 -605.191406 C 336.574219 -603.882812 313.585938 -601.632812 286.886719 -598.4375 C 235.992188 -592.351562 192.785156 -581.132812 157.265625 -564.789062 C 122.332031 -548.714844 94.4375 -529.742188 73.578125 -507.875 C 53.039062 -486.347656 38.597656 -463.660156 30.246094 -439.820312 C 21.996094 -416.269531 19.207031 -393.339844 21.875 -371.039062 C 23.570312 -356.863281 27.898438 -343.859375 34.855469 -332.019531 C 41.113281 -321.378906 49.507812 -313.253906 60.042969 -307.644531 C 70.046875 -302.316406 82.402344 -300.535156 97.117188 -302.292969 Z M 115.921875 47.027344 C 76.183594 51.78125 42.433594 48.308594 14.667969 36.605469 C -13.769531 24.621094 -35.660156 6.988281 -51 -16.289062 C -65.636719 -38.496094 -74.453125 -62.148438 -77.457031 -87.246094 C -80.398438 -111.855469 -78.265625 -136.007812 -71.050781 -159.707031 C -63.613281 -184.144531 -51.359375 -204.863281 -34.292969 -221.871094 C -15.957031 -240.136719 6.535156 -250.863281 33.1875 -254.050781 C 43.585938 -255.296875 52.652344 -253.515625 60.386719 -248.714844 C 70.21875 -242.609375 75.855469 -233.507812 77.304688 -221.414062 C 78.195312 -213.957031 81.867188 -208.253906 88.324219 -204.308594 C 97.023438 -198.996094 108.921875 -197.238281 124.019531 -199.046875 C 135.335938 -200.398438 147.828125 -205.421875 161.503906 -214.109375 C 175.679688 -223.117188 189.117188 -236.566406 201.816406 -254.453125 C 214.660156 -272.542969 224.851562 -295.984375 232.378906 -324.777344 C 236.804688 -342.398438 241.304688 -360.75 245.878906 -379.839844 C 250.550781 -399.320312 255.230469 -417.652344 259.929688 -434.832031 C 264.792969 -454.039062 273.34375 -468.871094 285.582031 -479.332031 C 297.605469 -489.601562 312.011719 -495.742188 328.800781 -497.75 C 355.054688 -500.890625 374.550781 -495.5625 387.296875 -481.761719 C 399.980469 -468.03125 404.152344 -449.914062 399.804688 -427.402344 C 391.941406 -385.945312 384.035156 -346.878906 376.085938 -310.203125 C 368.050781 -273.128906 358.878906 -236.824219 348.578125 -201.28125 C 326.800781 -124.929688 296.464844 -66.453125 257.566406 -25.847656 C 217.21875 16.265625 170.003906 40.558594 115.921875 47.027344 Z M 109.148438 -9.609375 C 149.710938 -14.460938 185.453125 -33.027344 216.378906 -65.308594 C 248.75 -99.101562 274.558594 -149.71875 293.792969 -217.164062 C 303.734375 -251.449219 312.582031 -286.488281 320.339844 -322.285156 C 328.1875 -358.476562 336.003906 -397.121094 343.800781 -438.214844 C 344.382812 -441.226562 344.542969 -443.433594 344.28125 -444.839844 C 344.371094 -444.363281 344.742188 -443.769531 345.398438 -443.058594 C 346.144531 -442.25 346.917969 -441.640625 347.722656 -441.230469 C 347.871094 -441.152344 347.980469 -441.101562 348.042969 -441.082031 C 347.90625 -441.128906 347.707031 -441.175781 347.445312 -441.230469 C 344.777344 -441.78125 340.820312 -441.742188 335.574219 -441.113281 C 330.214844 -440.472656 325.902344 -438.757812 322.636719 -435.964844 C 319.585938 -433.359375 317.023438 -427.96875 314.949219 -419.792969 C 310.410156 -403.191406 305.878906 -385.441406 301.351562 -366.546875 C 296.726562 -347.257812 292.132812 -328.523438 287.5625 -310.34375 C 278.273438 -274.828125 265.195312 -245.1875 248.324219 -221.429688 C 231.308594 -197.460938 212.566406 -178.976562 192.097656 -165.96875 C 171.128906 -152.640625 150.691406 -144.789062 130.796875 -142.410156 C 102.601562 -139.035156 78.527344 -143.449219 58.578125 -155.640625 C 36.386719 -169.203125 23.75 -188.871094 20.667969 -214.640625 C 20.9375 -212.375 21.703125 -210.125 22.964844 -207.890625 C 24.75 -204.726562 27.195312 -202.183594 30.296875 -200.257812 C 32.652344 -198.792969 35.082031 -197.882812 37.574219 -197.527344 C 38.578125 -197.382812 39.375 -197.347656 39.960938 -197.417969 C 26.335938 -195.785156 15.003906 -190.46875 5.964844 -181.460938 C -4.34375 -171.191406 -11.824219 -158.40625 -16.484375 -143.097656 C -21.367188 -127.050781 -22.8125 -110.691406 -20.820312 -94.019531 C -18.882812 -77.835938 -13.070312 -62.386719 -3.375 -47.675781 C 5.617188 -34.035156 19.015625 -23.460938 36.820312 -15.957031 C 55.304688 -8.167969 79.410156 -6.050781 109.148438 -9.609375 Z M 109.148438 -9.609375 "/></g></g></g></g><g fill="#231f20" fill-opacity="1"><g transform="translate(160.166819, 701.318089)"><g><path d="M 100.5 -273.984375 C 79.863281 -271.515625 61.910156 -274.34375 46.640625 -282.46875 C 31.367188 -290.601562 19.242188 -302.300781 10.265625 -317.5625 C 1.296875 -332.832031 -4.269531 -349.523438 -6.4375 -367.640625 C -9.632812 -394.328125 -6.378906 -421.523438 3.328125 -449.234375 C 13.035156 -476.953125 29.570312 -503.054688 52.9375 -527.546875 C 76.3125 -552.046875 107.113281 -573.09375 145.34375 -590.6875 C 183.582031 -608.289062 229.632812 -620.3125 283.5 -626.75 C 310.6875 -630 334.15625 -632.296875 353.90625 -633.640625 C 373.65625 -634.984375 391.894531 -636.144531 408.625 -637.125 C 425.363281 -638.101562 442.296875 -639.613281 459.421875 -641.65625 C 486.597656 -644.90625 507.445312 -648.804688 521.96875 -653.359375 C 536.5 -657.910156 548.546875 -660.753906 558.109375 -661.890625 C 569.679688 -663.273438 577.796875 -661.566406 582.453125 -656.765625 C 587.117188 -651.960938 590.054688 -644.523438 591.265625 -634.453125 C 593.546875 -615.316406 591.050781 -596.632812 583.78125 -578.40625 C 576.519531 -560.1875 564.332031 -544.6875 547.21875 -531.90625 C 530.113281 -519.132812 507.96875 -511.125 480.78125 -507.875 C 462.65625 -505.707031 446.679688 -505.835938 432.859375 -508.265625 C 419.046875 -510.703125 405.414062 -513.671875 391.96875 -517.171875 C 378.53125 -520.679688 363.515625 -523.484375 346.921875 -525.578125 C 330.335938 -527.671875 310.210938 -527.300781 286.546875 -524.46875 C 256.847656 -520.914062 231.804688 -513.578125 211.421875 -502.453125 C 191.046875 -491.335938 176.023438 -478.179688 166.359375 -462.984375 C 156.691406 -447.785156 152.820312 -432.132812 154.75 -416.03125 C 155.957031 -405.957031 159.734375 -397.851562 166.078125 -391.71875 C 172.429688 -385.59375 179.640625 -383.007812 187.703125 -383.96875 C 192.171875 -376.332031 193.570312 -366.671875 191.90625 -354.984375 C 190.25 -343.296875 185.632812 -331.765625 178.0625 -320.390625 C 170.488281 -309.015625 160.203125 -298.976562 147.203125 -290.28125 C 134.203125 -281.582031 118.632812 -276.148438 100.5 -273.984375 Z M 112.53125 18.71875 C 77.800781 22.863281 48.875 20.0625 25.75 10.3125 C 2.632812 0.570312 -15.003906 -13.523438 -27.171875 -31.984375 C -39.347656 -50.441406 -46.671875 -69.992188 -49.140625 -90.640625 C -51.609375 -111.273438 -49.816406 -131.53125 -43.765625 -151.40625 C -37.710938 -171.28125 -27.84375 -188.035156 -14.15625 -201.671875 C -0.476562 -215.304688 16.425781 -223.328125 36.5625 -225.734375 C 44.113281 -226.628906 48.253906 -224.0625 48.984375 -218.03125 C 50.972656 -201.40625 59.128906 -188.71875 73.453125 -179.96875 C 87.773438 -171.21875 105.757812 -168.140625 127.40625 -170.734375 C 143.019531 -172.597656 159.484375 -179.03125 176.796875 -190.03125 C 194.117188 -201.039062 210.207031 -217.007812 225.0625 -237.9375 C 239.925781 -258.863281 251.5625 -285.40625 259.96875 -317.5625 C 264.46875 -335.457031 269.015625 -354 273.609375 -373.1875 C 278.210938 -392.375 282.828125 -410.414062 287.453125 -427.3125 C 290.910156 -441 296.460938 -451.109375 304.109375 -457.640625 C 311.753906 -464.179688 321.113281 -468.113281 332.1875 -469.4375 C 348.800781 -471.414062 360.1875 -469.070312 366.34375 -462.40625 C 372.507812 -455.75 374.328125 -445.882812 371.796875 -432.8125 C 363.972656 -391.53125 356.113281 -352.671875 348.21875 -316.234375 C 340.320312 -279.804688 331.3125 -244.132812 321.1875 -209.21875 C 300.675781 -137.320312 272.601562 -82.773438 236.96875 -45.578125 C 201.332031 -8.378906 159.851562 13.050781 112.53125 18.71875 Z M 112.53125 18.71875 "/></g></g></g></g></g><g transform="matrix(1, 0, 0, 1, 596, 83)"><g clip-path="url(#3b2175c201)"><g fill="#231f20" fill-opacity="1"><g transform="translate(6.197335, 625.87942)"><g><path d="M 137.546875 -370.203125 C 121.117188 -370.203125 106.972656 -373.734375 95.109375 -380.796875 C 83.253906 -387.867188 77.328125 -400.53125 77.328125 -418.78125 C 77.328125 -442.957031 84.054688 -459.492188 97.515625 -468.390625 C 110.972656 -477.285156 127.050781 -481.734375 145.75 -481.734375 C 163.082031 -481.734375 177.789062 -477.851562 189.875 -470.09375 C 201.96875 -462.34375 207.101562 -447.75 205.28125 -426.3125 C 203.457031 -405.320312 196.160156 -390.722656 183.390625 -382.515625 C 170.617188 -374.304688 155.335938 -370.203125 137.546875 -370.203125 Z M 61.578125 0 C 38.773438 0 22.582031 -8.320312 13 -24.96875 C 3.414062 -41.625 -1.375 -61.8125 -1.375 -85.53125 C -1.375 -101.5 0.222656 -118.378906 3.421875 -136.171875 C 6.617188 -153.960938 10.722656 -171.070312 15.734375 -187.5 C 31.703125 -237.21875 47.210938 -275.421875 62.265625 -302.109375 C 77.316406 -328.796875 94.65625 -342.140625 114.28125 -342.140625 C 129.789062 -342.140625 137.546875 -331.875 137.546875 -311.34375 C 137.546875 -297.65625 134.921875 -283.625 129.671875 -269.25 C 124.421875 -254.882812 119.285156 -240.742188 114.265625 -226.828125 C 109.253906 -212.921875 106.75 -199.8125 106.75 -187.5 C 106.75 -176.09375 109.597656 -167.535156 115.296875 -161.828125 C 121.003906 -156.128906 128.421875 -153.28125 137.546875 -153.28125 C 148.035156 -153.28125 156.8125 -156.472656 163.875 -162.859375 C 170.945312 -169.242188 177.90625 -177.457031 184.75 -187.5 C 188.40625 -192.96875 193.082031 -195.015625 198.78125 -193.640625 C 204.488281 -192.273438 209.28125 -189.195312 213.15625 -184.40625 C 217.03125 -179.625 217.828125 -175.179688 215.546875 -171.078125 C 210.984375 -163.773438 205.625 -153.28125 199.46875 -139.59375 C 193.3125 -125.90625 185.898438 -111.078125 177.234375 -95.109375 C 168.566406 -79.148438 158.644531 -63.984375 147.46875 -49.609375 C 136.289062 -35.242188 123.628906 -23.382812 109.484375 -14.03125 C 95.335938 -4.675781 79.367188 0 61.578125 0 Z M 61.578125 0 "/></g></g></g><g fill="#231f20" fill-opacity="1"><g transform="translate(174.527187, 625.87942)"><g><path d="M 58.15625 0 C 33.976562 0 17.097656 -6.726562 7.515625 -20.1875 C -2.054688 -33.644531 -6.84375 -50.410156 -6.84375 -70.484375 C -6.84375 -87.816406 -4.675781 -106.742188 -0.34375 -127.265625 C 3.988281 -147.796875 9.578125 -167.875 16.421875 -187.5 C 39.691406 -254.09375 59.421875 -309.972656 75.609375 -355.140625 C 91.804688 -400.304688 107.429688 -434.40625 122.484375 -457.4375 C 137.535156 -480.476562 154.1875 -492 172.4375 -492 C 186.582031 -492 195.476562 -486.640625 199.125 -475.921875 C 202.769531 -465.203125 199.347656 -449.117188 188.859375 -427.671875 C 170.160156 -389.804688 154.082031 -354.789062 140.625 -322.625 C 127.164062 -290.46875 116.554688 -260.019531 108.796875 -231.28125 C 105.148438 -218.050781 102.523438 -205.390625 100.921875 -193.296875 C 99.328125 -181.210938 100.8125 -171.40625 105.375 -163.875 C 109.9375 -156.351562 119.0625 -152.59375 132.75 -152.59375 C 144.613281 -152.59375 154.992188 -155.671875 163.890625 -161.828125 C 172.785156 -167.992188 180.878906 -176.550781 188.171875 -187.5 C 191.828125 -192.96875 196.617188 -194.90625 202.546875 -193.3125 C 208.472656 -191.71875 213.375 -188.640625 217.25 -184.078125 C 221.132812 -179.515625 221.707031 -174.953125 218.96875 -170.390625 C 214.40625 -163.085938 208.929688 -152.476562 202.546875 -138.5625 C 196.160156 -124.65625 188.519531 -109.832031 179.625 -94.09375 C 170.726562 -78.351562 160.347656 -63.296875 148.484375 -48.921875 C 136.628906 -34.554688 123.285156 -22.8125 108.453125 -13.6875 C 93.628906 -4.5625 76.863281 0 58.15625 0 Z M 58.15625 0 "/></g></g></g><g fill="#231f20" fill-opacity="1"><g transform="translate(346.962662, 625.87942)"><g><path d="M 46.53125 0 C 26.914062 0 13.113281 -6.726562 5.125 -20.1875 C -2.851562 -33.644531 -6.84375 -50.410156 -6.84375 -70.484375 C -6.84375 -87.816406 -4.675781 -106.742188 -0.34375 -127.265625 C 3.988281 -147.796875 9.578125 -167.875 16.421875 -187.5 C 39.691406 -254.09375 59.421875 -309.972656 75.609375 -355.140625 C 91.804688 -400.304688 107.429688 -434.40625 122.484375 -457.4375 C 137.535156 -480.476562 154.1875 -492 172.4375 -492 C 186.582031 -492 195.363281 -486.75 198.78125 -476.25 C 202.207031 -465.757812 198.898438 -449.566406 188.859375 -427.671875 C 176.546875 -399.847656 163.085938 -370.539062 148.484375 -339.75 C 133.890625 -308.957031 123.398438 -277.132812 117.015625 -244.28125 C 115.640625 -236.988281 117.578125 -231.972656 122.828125 -229.234375 C 128.078125 -226.492188 134.007812 -226.148438 140.625 -228.203125 C 147.238281 -230.253906 151.910156 -234.25 154.640625 -240.1875 C 168.785156 -272.113281 184.296875 -297.085938 201.171875 -315.109375 C 218.054688 -333.128906 238.816406 -342.140625 263.453125 -342.140625 C 283.972656 -342.140625 299.140625 -336.664062 308.953125 -325.71875 C 318.765625 -314.769531 323.671875 -302.453125 323.671875 -288.765625 C 323.671875 -242.234375 295.382812 -218.96875 238.8125 -218.96875 C 227.40625 -218.507812 219.078125 -215.316406 213.828125 -209.390625 C 208.585938 -203.460938 205.96875 -196.390625 205.96875 -188.171875 C 205.96875 -176.773438 211.554688 -167.992188 222.734375 -161.828125 C 233.910156 -155.671875 248.847656 -152.59375 267.546875 -152.59375 C 287.617188 -152.59375 305.640625 -155.101562 321.609375 -160.125 C 337.578125 -165.144531 349.894531 -174.269531 358.5625 -187.5 C 364.039062 -195.707031 369.628906 -198.894531 375.328125 -197.0625 C 381.023438 -195.238281 385.472656 -191.476562 388.671875 -185.78125 C 391.867188 -180.082031 392.097656 -174.953125 389.359375 -170.390625 C 384.796875 -162.628906 379.207031 -151.90625 372.59375 -138.21875 C 365.976562 -124.539062 357.992188 -109.832031 348.640625 -94.09375 C 339.285156 -78.351562 328.445312 -63.296875 316.125 -48.921875 C 303.8125 -34.554688 289.785156 -22.8125 274.046875 -13.6875 C 258.316406 -4.5625 240.867188 0 221.703125 0 C 197.984375 0 180.535156 -10.71875 169.359375 -32.15625 C 158.179688 -53.601562 149.398438 -87.816406 143.015625 -134.796875 C 141.648438 -146.660156 137.429688 -154.070312 130.359375 -157.03125 C 123.285156 -160 116.554688 -158.859375 110.171875 -153.609375 C 103.785156 -148.367188 100.59375 -138.679688 100.59375 -124.546875 L 100.59375 -72.53125 C 100.59375 -61.125 99.222656 -49.832031 96.484375 -38.65625 C 93.742188 -27.476562 88.492188 -18.238281 80.734375 -10.9375 C 72.984375 -3.644531 61.582031 0 46.53125 0 Z M 46.53125 0 "/></g></g></g></g></g></svg>